<?xml version="1.0" ?><svg enable-background="new 0 0 32 32" version="1.1" viewBox="0 0 32 32" xml:space="preserve" xmlns="http://www.w3.org/2000/svg" xmlns:xlink="http://www.w3.org/1999/xlink"><g id="Outline_Color_copy_2"><g><path d="M28,1c1.654,0,3,1.346,3,3v24c0,1.654-1.346,3-3,3H4c-1.654,0-3-1.346-3-3V4c0-1.654,1.346-3,3-3H28 M28,0H4    C1.8,0,0,1.8,0,4v24c0,2.2,1.8,4,4,4h24c2.2,0,4-1.8,4-4V4C32,1.8,30.2,0,28,0L28,0z"/></g><ellipse clip-rule="evenodd" cx="14.1" cy="10.87" fill-rule="evenodd" rx="1.9" ry="1.881"/><path clip-rule="evenodd" d="M16.112,5.911c-4.5,0-8.058,3.773-8.058,8.326c0,4.757,6.255,11.851,8.058,11.851   c1.578,0,7.834-7.094,7.834-11.851C23.946,9.685,20.388,5.911,16.112,5.911z M16.138,18.565c-2.809,0-4.975-2.144-4.975-4.651   c0-2.781,2.165-4.925,4.975-4.925c2.533,0,4.698,2.144,4.698,4.925C20.837,16.421,18.671,18.565,16.138,18.565z" fill-rule="evenodd"/></g></svg>
